<svg width="175" height="22" viewBox="0 0 175 22" fill="none" xmlns="http://www.w3.org/2000/svg">
<path d="M11.5078 6.62109L9.28125 10.3125C9.1875 10 9.06641 9.64844 8.91797 9.25781C8.76953 8.86719 8.58594 8.50391 8.36719 8.16797C8.14844 7.82422 7.88672 7.53906 7.58203 7.3125C7.27734 7.07812 6.92578 6.96094 6.52734 6.96094C6.16016 6.96094 5.83984 7.05469 5.56641 7.24219C5.30078 7.42969 5.07422 7.67578 4.88672 7.98047C4.69922 8.27734 4.54297 8.61719 4.41797 9C4.30078 9.375 4.20703 9.75781 4.13672 10.1484C4.07422 10.5312 4.03125 10.9023 4.00781 11.2617C3.98438 11.6133 3.97266 11.918 3.97266 12.1758V18.9609H0V5.42578H1.52344L3.12891 8.57812C3.34766 8.07031 3.59766 7.60547 3.87891 7.18359C4.16016 6.75391 4.48438 6.38672 4.85156 6.08203C5.21875 5.76953 5.63281 5.52734 6.09375 5.35547C6.5625 5.18359 7.08984 5.09766 7.67578 5.09766C7.98047 5.09766 8.32031 5.125 8.69531 5.17969C9.07031 5.22656 9.4375 5.3125 9.79688 5.4375C10.1562 5.55469 10.4883 5.71094 10.793 5.90625C11.0977 6.10156 11.3359 6.33984 11.5078 6.62109ZM18.4781 12.5391C18.9625 12.6484 19.4469 12.7344 19.9312 12.7969C20.4156 12.8594 20.9039 12.8906 21.3961 12.8906C21.9117 12.8906 22.3883 12.8438 22.8258 12.75C23.2711 12.6484 23.6539 12.4844 23.9742 12.2578C24.3023 12.0234 24.5602 11.7148 24.7477 11.332C24.9352 10.9492 25.0289 10.4727 25.0289 9.90234C25.0289 9.44141 24.9664 9.01953 24.8414 8.63672C24.7164 8.25391 24.5289 7.92578 24.2789 7.65234C24.0367 7.37891 23.7359 7.16797 23.3766 7.01953C23.0172 6.86328 22.5992 6.78516 22.1227 6.78516C21.6773 6.78516 21.275 6.86719 20.9156 7.03125C20.5641 7.19531 20.2516 7.41797 19.9781 7.69922C19.7125 7.97266 19.482 8.29297 19.2867 8.66016C19.0992 9.02734 18.943 9.41016 18.818 9.80859C18.693 10.207 18.6031 10.6094 18.5484 11.0156C18.4937 11.4219 18.4664 11.8047 18.4664 12.1641C18.4664 12.2266 18.4664 12.2891 18.4664 12.3516C18.4664 12.4141 18.4703 12.4766 18.4781 12.5391ZM28.2398 9.86719C28.2398 10.4219 28.15 10.918 27.9703 11.3555C27.7906 11.7852 27.5445 12.1641 27.232 12.4922C26.9273 12.8203 26.5719 13.0977 26.1656 13.3242C25.7594 13.5508 25.3258 13.7383 24.8648 13.8867C24.4039 14.0273 23.9273 14.1289 23.4352 14.1914C22.9508 14.2539 22.4781 14.2852 22.0172 14.2852C21.4312 14.2852 20.8531 14.2461 20.2828 14.168C19.7125 14.082 19.15 13.9492 18.5953 13.7695C18.6812 14.2852 18.818 14.7773 19.0055 15.2461C19.193 15.707 19.443 16.1133 19.7555 16.4648C20.068 16.8086 20.4508 17.082 20.9039 17.2852C21.3648 17.4883 21.9078 17.5898 22.5328 17.5898C22.9469 17.5898 23.3414 17.5273 23.7164 17.4023C24.0914 17.2773 24.4352 17.1016 24.7477 16.875C25.0602 16.6484 25.3336 16.3789 25.568 16.0664C25.8102 15.7539 26.0055 15.4062 26.1539 15.0234L27.8648 15.6562C27.607 16.2734 27.2516 16.8086 26.7984 17.2617C26.3531 17.707 25.8453 18.0781 25.275 18.375C24.7125 18.6641 24.1109 18.8789 23.4703 19.0195C22.8375 19.1602 22.2086 19.2305 21.5836 19.2305C20.5523 19.2305 19.5992 19.0586 18.7242 18.7148C17.8492 18.3633 17.0953 17.875 16.4625 17.25C15.8297 16.625 15.3336 15.8789 14.9742 15.0117C14.6148 14.1445 14.4352 13.1953 14.4352 12.1641C14.4352 11.1328 14.6148 10.1836 14.9742 9.31641C15.3336 8.44922 15.8297 7.70312 16.4625 7.07812C17.0953 6.45313 17.8492 5.96875 18.7242 5.625C19.5992 5.27344 20.5523 5.09766 21.5836 5.09766C22.0836 5.09766 22.5953 5.13281 23.1187 5.20312C23.6422 5.27344 24.15 5.38672 24.6422 5.54297C25.1344 5.69141 25.5992 5.88672 26.0367 6.12891C26.4742 6.37109 26.8531 6.67187 27.1734 7.03125C27.5016 7.38281 27.7594 7.79297 27.9469 8.26172C28.1422 8.73047 28.2398 9.26562 28.2398 9.86719ZM44.7609 14.6367C44.7609 15.2305 44.675 15.7578 44.5031 16.2188C44.3312 16.6797 44.0969 17.082 43.8 17.4258C43.5031 17.7617 43.1516 18.0469 42.7453 18.2812C42.3391 18.5078 41.9016 18.6914 41.4328 18.832C40.9719 18.9727 40.4875 19.0742 39.9797 19.1367C39.4719 19.1992 38.968 19.2305 38.468 19.2305C37.7961 19.2305 37.2023 19.1875 36.6867 19.1016C36.1711 19.0156 35.6789 18.8789 35.2102 18.6914C34.7414 18.4961 34.2727 18.2461 33.8039 17.9414C33.343 17.6367 32.8273 17.2656 32.257 16.8281L34.5656 14.9414C34.7766 15.3398 35.0539 15.7031 35.3977 16.0312C35.7492 16.3516 36.1125 16.6289 36.4875 16.8633C36.8625 17.0977 37.2258 17.2773 37.5773 17.4023C37.9289 17.5273 38.2141 17.5898 38.4328 17.5898C38.6125 17.5898 38.8156 17.5859 39.0422 17.5781C39.2687 17.5625 39.4992 17.5391 39.7336 17.5078C39.968 17.4688 40.1984 17.4141 40.425 17.3438C40.6516 17.2734 40.8508 17.1797 41.0227 17.0625C41.2023 16.9375 41.343 16.7852 41.4445 16.6055C41.5539 16.418 41.6086 16.1953 41.6086 15.9375C41.6086 15.6719 41.5383 15.4414 41.3977 15.2461C41.2648 15.043 41.0891 14.8672 40.8703 14.7188C40.6516 14.5703 40.4016 14.4453 40.1203 14.3438C39.8391 14.2422 39.5539 14.1523 39.2648 14.0742C38.9836 13.9961 38.7102 13.9297 38.4445 13.875C38.1789 13.8125 37.9484 13.7539 37.7531 13.6992C37.3937 13.5977 37.0148 13.4961 36.6164 13.3945C36.218 13.2852 35.8234 13.1641 35.4328 13.0312C35.0422 12.8906 34.6672 12.7266 34.3078 12.5391C33.9562 12.3516 33.6437 12.1289 33.3703 11.8711C33.1047 11.6055 32.8898 11.2969 32.7258 10.9453C32.5695 10.5859 32.4914 10.168 32.4914 9.69141C32.4914 8.81641 32.6633 8.08594 33.007 7.5C33.3586 6.90625 33.8195 6.43359 34.3898 6.08203C34.9602 5.72266 35.6086 5.46875 36.3352 5.32031C37.0617 5.17187 37.8 5.09766 38.55 5.09766C39.0656 5.09766 39.6086 5.15234 40.1789 5.26172C40.7492 5.36328 41.3039 5.51953 41.843 5.73047C42.382 5.93359 42.8859 6.18359 43.3547 6.48047C43.8234 6.77734 44.2141 7.11719 44.5266 7.5L42.218 9.39844C42.0461 8.92969 41.8195 8.52734 41.5383 8.19141C41.2648 7.85547 40.9641 7.58203 40.6359 7.37109C40.3156 7.15234 39.9836 6.99219 39.6398 6.89062C39.3039 6.78906 38.9914 6.73828 38.7023 6.73828C38.4211 6.73828 38.1047 6.75 37.7531 6.77344C37.4016 6.79688 37.0695 6.86328 36.757 6.97266C36.4523 7.08203 36.1906 7.25 35.9719 7.47656C35.7609 7.69531 35.6555 8 35.6555 8.39062C35.6555 8.67188 35.718 8.91406 35.843 9.11719C35.9758 9.3125 36.1477 9.48438 36.3586 9.63281C36.5695 9.77344 36.8078 9.89453 37.0734 9.99609C37.3469 10.0898 37.6242 10.1758 37.9055 10.2539C38.1867 10.3242 38.4602 10.3867 38.7258 10.4414C38.9914 10.4961 39.2297 10.5547 39.4406 10.6172C39.8 10.7188 40.1789 10.8242 40.5773 10.9336C40.9836 11.0352 41.382 11.1562 41.7727 11.2969C42.1633 11.4297 42.5383 11.5898 42.8977 11.7773C43.2648 11.957 43.5852 12.1797 43.8586 12.4453C44.132 12.7109 44.3508 13.0234 44.5148 13.3828C44.6789 13.7344 44.7609 14.1523 44.7609 14.6367ZM52.9266 12.5391C53.4109 12.6484 53.8953 12.7344 54.3797 12.7969C54.8641 12.8594 55.3523 12.8906 55.8445 12.8906C56.3602 12.8906 56.8367 12.8438 57.2742 12.75C57.7195 12.6484 58.1023 12.4844 58.4227 12.2578C58.7508 12.0234 59.0086 11.7148 59.1961 11.332C59.3836 10.9492 59.4773 10.4727 59.4773 9.90234C59.4773 9.44141 59.4148 9.01953 59.2898 8.63672C59.1648 8.25391 58.9773 7.92578 58.7273 7.65234C58.4852 7.37891 58.1844 7.16797 57.825 7.01953C57.4656 6.86328 57.0477 6.78516 56.5711 6.78516C56.1258 6.78516 55.7234 6.86719 55.3641 7.03125C55.0125 7.19531 54.7 7.41797 54.4266 7.69922C54.1609 7.97266 53.9305 8.29297 53.7352 8.66016C53.5477 9.02734 53.3914 9.41016 53.2664 9.80859C53.1414 10.207 53.0516 10.6094 52.9969 11.0156C52.9422 11.4219 52.9148 11.8047 52.9148 12.1641C52.9148 12.2266 52.9148 12.2891 52.9148 12.3516C52.9148 12.4141 52.9188 12.4766 52.9266 12.5391ZM62.6883 9.86719C62.6883 10.4219 62.5984 10.918 62.4188 11.3555C62.2391 11.7852 61.993 12.1641 61.6805 12.4922C61.3758 12.8203 61.0203 13.0977 60.6141 13.3242C60.2078 13.5508 59.7742 13.7383 59.3133 13.8867C58.8523 14.0273 58.3758 14.1289 57.8836 14.1914C57.3992 14.2539 56.9266 14.2852 56.4656 14.2852C55.8797 14.2852 55.3016 14.2461 54.7313 14.168C54.1609 14.082 53.5984 13.9492 53.0438 13.7695C53.1297 14.2852 53.2664 14.7773 53.4539 15.2461C53.6414 15.707 53.8914 16.1133 54.2039 16.4648C54.5164 16.8086 54.8992 17.082 55.3523 17.2852C55.8133 17.4883 56.3563 17.5898 56.9813 17.5898C57.3953 17.5898 57.7898 17.5273 58.1648 17.4023C58.5398 17.2773 58.8836 17.1016 59.1961 16.875C59.5086 16.6484 59.782 16.3789 60.0164 16.0664C60.2586 15.7539 60.4539 15.4062 60.6023 15.0234L62.3133 15.6562C62.0555 16.2734 61.7 16.8086 61.2469 17.2617C60.8016 17.707 60.2938 18.0781 59.7234 18.375C59.1609 18.6641 58.5594 18.8789 57.9188 19.0195C57.2859 19.1602 56.657 19.2305 56.032 19.2305C55.0008 19.2305 54.0477 19.0586 53.1727 18.7148C52.2977 18.3633 51.5438 17.875 50.9109 17.25C50.2781 16.625 49.782 15.8789 49.4227 15.0117C49.0633 14.1445 48.8836 13.1953 48.8836 12.1641C48.8836 11.1328 49.0633 10.1836 49.4227 9.31641C49.782 8.44922 50.2781 7.70312 50.9109 7.07812C51.5438 6.45313 52.2977 5.96875 53.1727 5.625C54.0477 5.27344 55.0008 5.09766 56.032 5.09766C56.532 5.09766 57.0438 5.13281 57.5672 5.20312C58.0906 5.27344 58.5984 5.38672 59.0906 5.54297C59.5828 5.69141 60.0477 5.88672 60.4852 6.12891C60.9227 6.37109 61.3016 6.67187 61.6219 7.03125C61.95 7.38281 62.2078 7.79297 62.3953 8.26172C62.5906 8.73047 62.6883 9.26562 62.6883 9.86719ZM79.0687 6.62109L76.8422 10.3125C76.7484 10 76.6273 9.64844 76.4789 9.25781C76.3305 8.86719 76.1469 8.50391 75.9281 8.16797C75.7094 7.82422 75.4477 7.53906 75.143 7.3125C74.8383 7.07812 74.4867 6.96094 74.0883 6.96094C73.7211 6.96094 73.4008 7.05469 73.1273 7.24219C72.8617 7.42969 72.6352 7.67578 72.4477 7.98047C72.2602 8.27734 72.1039 8.61719 71.9789 9C71.8617 9.375 71.768 9.75781 71.6977 10.1484C71.6352 10.5312 71.5922 10.9023 71.5687 11.2617C71.5453 11.6133 71.5336 11.918 71.5336 12.1758V18.9609H67.5609V5.42578H69.0844L70.6898 8.57812C70.9086 8.07031 71.1586 7.60547 71.4398 7.18359C71.7211 6.75391 72.0453 6.38672 72.4125 6.08203C72.7797 5.76953 73.1937 5.52734 73.6547 5.35547C74.1234 5.18359 74.6508 5.09766 75.2367 5.09766C75.5414 5.09766 75.8812 5.125 76.2562 5.17969C76.6312 5.22656 76.9984 5.3125 77.3578 5.4375C77.7172 5.55469 78.0492 5.71094 78.3539 5.90625C78.6586 6.10156 78.8969 6.33984 79.0687 6.62109ZM90.0938 18.9609H86.5312L81.6094 5.42578H85.5703L89.1797 16.207L92.6836 5.42578H95.4258L90.0938 18.9609ZM112.92 18.9609H108.959V17.3438C108.49 17.9844 107.923 18.4609 107.259 18.7734C106.603 19.0781 105.88 19.2305 105.091 19.2305C104.06 19.2305 103.138 19.0469 102.326 18.6797C101.513 18.3125 100.826 17.8125 100.263 17.1797C99.7008 16.5391 99.2711 15.7891 98.9742 14.9297C98.6773 14.0703 98.5289 13.1484 98.5289 12.1641C98.5289 11.1797 98.6773 10.2578 98.9742 9.39844C99.2711 8.53906 99.7008 7.79297 100.263 7.16016C100.826 6.51953 101.513 6.01562 102.326 5.64844C103.138 5.28125 104.06 5.09766 105.091 5.09766C105.615 5.09766 106.111 5.17578 106.58 5.33203C107.056 5.48828 107.49 5.71094 107.88 6C108.279 6.28125 108.627 6.625 108.923 7.03125C109.228 7.42969 109.466 7.875 109.638 8.36719L111.396 5.42578H112.92V18.9609ZM108.935 12.1641C108.935 11.8125 108.916 11.4414 108.877 11.0508C108.845 10.6602 108.787 10.2734 108.701 9.89062C108.615 9.50781 108.494 9.14453 108.338 8.80078C108.189 8.44922 107.994 8.14062 107.752 7.875C107.517 7.60156 107.232 7.38672 106.896 7.23047C106.56 7.07422 106.17 6.99609 105.724 6.99609C105.279 6.99609 104.892 7.07812 104.564 7.24219C104.236 7.39844 103.955 7.61328 103.72 7.88672C103.486 8.15234 103.291 8.46094 103.134 8.8125C102.986 9.16406 102.869 9.53125 102.783 9.91406C102.697 10.2969 102.634 10.6836 102.595 11.0742C102.564 11.457 102.548 11.8203 102.548 12.1641C102.548 12.5078 102.564 12.875 102.595 13.2656C102.634 13.6562 102.697 14.043 102.783 14.4258C102.869 14.8086 102.986 15.1758 103.134 15.5273C103.291 15.8789 103.486 16.1914 103.72 16.4648C103.955 16.7305 104.236 16.9453 104.564 17.1094C104.892 17.2656 105.279 17.3438 105.724 17.3438C106.13 17.3438 106.49 17.2617 106.802 17.0977C107.123 16.9258 107.4 16.6992 107.634 16.418C107.877 16.1367 108.08 15.8164 108.244 15.457C108.408 15.0977 108.541 14.7266 108.642 14.3438C108.744 13.9609 108.818 13.582 108.865 13.207C108.912 12.8242 108.935 12.4766 108.935 12.1641ZM123.734 18.9609H119.761V6.99609H117.3V5.42578H119.761V0.445312H123.734V5.42578H127.835V6.99609H123.734V18.9609ZM136.235 2.15625C136.235 2.45312 136.177 2.73437 136.059 3C135.95 3.26563 135.798 3.49609 135.602 3.69141C135.407 3.88672 135.177 4.04297 134.911 4.16016C134.645 4.26953 134.364 4.32422 134.067 4.32422C133.77 4.32422 133.489 4.26953 133.223 4.16016C132.966 4.04297 132.739 3.88672 132.544 3.69141C132.348 3.49609 132.192 3.26563 132.075 3C131.966 2.73437 131.911 2.45312 131.911 2.15625C131.911 1.85938 131.966 1.58203 132.075 1.32422C132.192 1.05859 132.348 0.828125 132.544 0.632812C132.739 0.4375 132.966 0.285156 133.223 0.175781C133.489 0.0585938 133.77 0 134.067 0C134.364 0 134.645 0.0585938 134.911 0.175781C135.177 0.285156 135.407 0.4375 135.602 0.632812C135.798 0.828125 135.95 1.05859 136.059 1.32422C136.177 1.58203 136.235 1.85938 136.235 2.15625ZM136.059 18.9609H132.087V5.4375H136.059V18.9609ZM156.084 12.1641C156.084 12.8672 155.991 13.5273 155.803 14.1445C155.616 14.7617 155.354 15.332 155.018 15.8555C154.69 16.3789 154.291 16.8516 153.823 17.2734C153.354 17.6875 152.838 18.0391 152.276 18.3281C151.721 18.6172 151.123 18.8398 150.483 18.9961C149.85 19.1523 149.198 19.2305 148.526 19.2305C147.854 19.2305 147.202 19.1523 146.569 18.9961C145.936 18.8398 145.338 18.6172 144.776 18.3281C144.221 18.0391 143.709 17.6875 143.241 17.2734C142.772 16.8516 142.37 16.3789 142.034 15.8555C141.705 15.332 141.448 14.7617 141.26 14.1445C141.073 13.5195 140.979 12.8594 140.979 12.1641C140.979 11.4688 141.073 10.8125 141.26 10.1953C141.448 9.57031 141.705 8.99609 142.034 8.47266C142.37 7.94922 142.772 7.48047 143.241 7.06641C143.709 6.64453 144.221 6.28906 144.776 6C145.338 5.71094 145.936 5.48828 146.569 5.33203C147.202 5.17578 147.854 5.09766 148.526 5.09766C149.198 5.09766 149.85 5.17578 150.483 5.33203C151.123 5.48828 151.721 5.71094 152.276 6C152.838 6.28906 153.354 6.64453 153.823 7.06641C154.291 7.48047 154.69 7.94922 155.018 8.47266C155.354 8.99609 155.616 9.57031 155.803 10.1953C155.991 10.8125 156.084 11.4688 156.084 12.1641ZM152.053 12.1641C152.053 11.7891 152.03 11.3945 151.983 10.9805C151.944 10.5586 151.873 10.1484 151.772 9.75C151.67 9.34375 151.53 8.95703 151.35 8.58984C151.178 8.21484 150.963 7.89062 150.705 7.61719C150.448 7.33594 150.139 7.11328 149.78 6.94922C149.42 6.77734 149.002 6.69141 148.526 6.69141C148.073 6.69141 147.67 6.77734 147.319 6.94922C146.967 7.12109 146.659 7.35156 146.393 7.64062C146.135 7.92188 145.916 8.25 145.737 8.625C145.565 9 145.424 9.39062 145.315 9.79688C145.205 10.1953 145.127 10.6016 145.08 11.0156C145.034 11.4219 145.01 11.8047 145.01 12.1641C145.01 12.5234 145.034 12.9102 145.08 13.3242C145.127 13.7305 145.205 14.1367 145.315 14.543C145.424 14.9492 145.565 15.3398 145.737 15.7148C145.916 16.082 146.135 16.4102 146.393 16.6992C146.659 16.9805 146.967 17.207 147.319 17.3789C147.67 17.5508 148.073 17.6367 148.526 17.6367C148.995 17.6367 149.409 17.5547 149.768 17.3906C150.127 17.2188 150.436 16.9922 150.694 16.7109C150.959 16.4297 151.178 16.1055 151.35 15.7383C151.522 15.3711 151.659 14.9844 151.76 14.5781C151.87 14.1719 151.944 13.7617 151.983 13.3477C152.03 12.9336 152.053 12.5391 152.053 12.1641ZM174.832 11.2031C174.832 12.1172 174.719 13.0703 174.492 14.0625C174.273 15.0547 173.965 16.0273 173.566 16.9805C173.168 17.9336 172.691 18.8281 172.137 19.6641C171.582 20.5078 170.973 21.2344 170.309 21.8438L168.82 21.0352C169.031 20.6445 169.23 20.207 169.418 19.7227C169.605 19.2383 169.773 18.7266 169.922 18.1875C170.078 17.6406 170.215 17.0781 170.332 16.5C170.457 15.9219 170.559 15.3516 170.637 14.7891C170.723 14.2188 170.785 13.668 170.824 13.1367C170.871 12.5977 170.895 12.0977 170.895 11.6367C170.895 11.332 170.883 11.0078 170.859 10.6641C170.836 10.3125 170.785 9.96484 170.707 9.62109C170.637 9.26953 170.539 8.93359 170.414 8.61328C170.289 8.29297 170.121 8.01172 169.91 7.76953C169.707 7.52734 169.457 7.33203 169.16 7.18359C168.871 7.03516 168.527 6.96094 168.129 6.96094C167.738 6.96094 167.391 7.05078 167.086 7.23047C166.781 7.40234 166.512 7.63281 166.277 7.92188C166.043 8.20312 165.84 8.52734 165.668 8.89453C165.504 9.26172 165.367 9.64062 165.258 10.0312C165.156 10.4141 165.082 10.793 165.035 11.168C164.988 11.543 164.965 11.8789 164.965 12.1758V18.9609H160.992V5.42578H162.516L164.332 8.57812C164.551 8.05469 164.824 7.57812 165.152 7.14844C165.48 6.71875 165.852 6.35156 166.266 6.04688C166.68 5.74219 167.137 5.50781 167.637 5.34375C168.145 5.17969 168.691 5.09766 169.277 5.09766C170.215 5.09766 171.031 5.25 171.727 5.55469C172.422 5.85938 173 6.28516 173.461 6.83203C173.922 7.37109 174.266 8.01562 174.492 8.76562C174.719 9.50781 174.832 10.3203 174.832 11.2031Z" fill="#1B221A"/>
</svg>
